<?xml version="1.0" standalone="no"?><!DOCTYPE svg PUBLIC "-//W3C//DTD SVG 1.1//EN" "http://www.w3.org/Graphics/SVG/1.1/DTD/svg11.dtd"><svg t="1732024905261" class="icon" viewBox="0 0 1024 1024" version="1.1" xmlns="http://www.w3.org/2000/svg" p-id="6942" xmlns:xlink="http://www.w3.org/1999/xlink" width="200" height="200"><path d="M513.536 894.976c-161.28 0-292.352-131.072-292.352-292.352s131.072-292.352 292.352-292.352 292.352 131.072 292.352 292.352-131.072 292.352-292.352 292.352z m0-531.968c-132.096 0-239.616 107.52-239.616 239.616s107.52 239.616 239.616 239.616c132.096 0 239.616-107.52 239.616-239.616s-107.008-239.616-239.616-239.616z" fill="#000000" p-id="6943"></path><path d="M625.664 349.184l83.968-168.96c6.144-12.288 20.992-17.408 33.28-11.264 12.288 6.144 17.408 20.992 11.264 33.28l-83.968 168.96c-6.144 12.288-20.992 17.408-33.28 11.264-12.288-6.144-17.408-20.992-11.264-33.28zM394.752 359.424L287.744 144.896c-6.144-12.288-20.992-17.408-33.28-11.264-12.288 6.144-17.408 20.992-11.264 33.28l107.008 214.528c6.144 12.288 20.992 17.408 33.28 11.264 12.288-6.144 17.408-20.992 11.264-33.28zM519.168 316.416l-65.024-153.6c-5.12-12.8-19.968-18.432-32.256-13.312-12.8 5.12-18.432 19.968-13.312 32.256l65.024 154.112c5.12 12.8 19.968 18.432 32.256 13.312 12.8-5.632 18.944-19.968 13.312-32.768zM513.536 777.216c-96.256 0-174.592-78.336-174.592-174.592s78.336-174.592 174.592-174.592 174.592 78.336 174.592 174.592c0.512 96.256-77.824 174.592-174.592 174.592z m0-296.448c-67.072 0-121.856 54.784-121.856 121.856 0 67.072 54.784 121.856 121.856 121.856 67.072 0 121.856-54.784 121.856-121.856 0.512-67.072-54.272-121.856-121.856-121.856z" fill="#000000" p-id="6944"></path><path d="M556.032 210.944m-26.112 0a26.112 26.112 0 1 0 52.224 0 26.112 26.112 0 1 0-52.224 0Z" fill="#000000" p-id="6945"></path></svg>